<?xml version="1.0" encoding="UTF-8"?>
<svg width="50" height="50" viewBox="0 0 50 50" xmlns="http://www.w3.org/2000/svg" role="img" aria-labelledby="title">
  <title id="title">Addon Manager +</title>
  <defs>
    <linearGradient id="manager-bg" x1="6" y1="5" x2="44" y2="46" gradientUnits="userSpaceOnUse">
      <stop offset="0" stop-color="#1f3842"/>
      <stop offset="1" stop-color="#2f8d74"/>
    </linearGradient>
  </defs>
  <rect x="2" y="2" width="46" height="46" rx="10" fill="url(#manager-bg)"/>
  <path d="M13 16.5c0-2.5 2-4.5 4.5-4.5h15c2.5 0 4.5 2 4.5 4.5v17c0 2.5-2 4.5-4.5 4.5h-15c-2.5 0-4.5-2-4.5-4.5v-17Z" fill="#F8FAFC"/>
  <path d="M17 18.5c0-.8.7-1.5 1.5-1.5h13c.8 0 1.5.7 1.5 1.5v3c0 .8-.7 1.5-1.5 1.5h-13c-.8 0-1.5-.7-1.5-1.5v-3Z" fill="#A9BFA9"/>
  <path d="M18 28h8M18 32h6" stroke="#101828" stroke-width="2.4" stroke-linecap="round"/>
  <path d="M33 27v10M28 32h10" stroke="#067647" stroke-width="3.2" stroke-linecap="round"/>
  <path d="M24.8 7.5 20 12.3l4.8 4.8M25.2 7.5l4.8 4.8-4.8 4.8" fill="none" stroke="#D6E3D5" stroke-width="3" stroke-linecap="round" stroke-linejoin="round"/>
</svg>
